<svg width="24" height="25" viewBox="0 0 24 25" fill="none" xmlns="http://www.w3.org/2000/svg">
<path d="M17.3333 10.93V6.94037H13.3333V4.28063H17.3333V0.291016H20V4.28063H24V6.94037H20V10.93H17.3333ZM22.6 24.2287C19.7333 24.2287 16.9391 23.5912 14.2173 22.3163C11.4947 21.0423 9.08356 19.3578 6.984 17.2628C4.88356 15.1687 3.19467 12.7639 1.91733 10.0483C0.639111 7.33356 0 4.5466 0 1.68738C0 1.28842 0.133333 0.955951 0.4 0.689977C0.666667 0.424003 1 0.291016 1.4 0.291016H6.8C7.11111 0.291016 7.38889 0.390756 7.63333 0.590236C7.87778 0.789717 8.02222 1.04461 8.06667 1.35491L8.93333 6.00946C8.97778 6.31976 8.97244 6.60214 8.91733 6.85658C8.86133 7.11192 8.73333 7.33933 8.53333 7.53881L5.33333 10.797C6.26667 12.3928 7.43333 13.8889 8.83333 15.2853C10.2333 16.6817 11.7778 17.8896 13.4667 18.9092L16.6 15.784C16.8 15.5845 17.0613 15.4347 17.384 15.3345C17.7058 15.2352 18.0222 15.2077 18.3333 15.2521L22.9333 16.183C23.2444 16.2495 23.5 16.3988 23.7 16.6311C23.9 16.8643 24 17.136 24 17.4463V22.8323C24 23.2313 23.8667 23.5637 23.6 23.8297C23.3333 24.0957 23 24.2287 22.6 24.2287Z" fill="#044F73"/>
</svg>
