<svg width="21" height="20" viewBox="0 0 21 20" fill="none" xmlns="http://www.w3.org/2000/svg">
<path fill-rule="evenodd" clip-rule="evenodd" d="M6.75 16.875H14.25C15.2855 16.875 16.125 16.0355 16.125 15V9.0533C16.125 8.55602 15.9275 8.0791 15.5758 7.72747L11.5225 3.67417C11.1709 3.32254 10.694 3.125 10.1967 3.125L6.75 3.125C5.71447 3.125 4.875 3.96447 4.875 5L4.875 15C4.875 16.0355 5.71447 16.875 6.75 16.875ZM18 9.0533C18 8.05874 17.6049 7.10491 16.9016 6.40165L12.8483 2.34835C12.1451 1.64509 11.1913 1.25 10.1967 1.25H6.75C4.67893 1.25 3 2.92893 3 5V15C3 17.0711 4.67893 18.75 6.75 18.75H14.25C16.3211 18.75 18 17.0711 18 15L18 9.0533ZM6.75 10.3125C6.75 9.79473 7.16973 9.375 7.6875 9.375H13.3125C13.8303 9.375 14.25 9.79473 14.25 10.3125C14.25 10.8303 13.8303 11.25 13.3125 11.25H7.6875C7.16973 11.25 6.75 10.8303 6.75 10.3125ZM7.6875 13.125C7.16973 13.125 6.75 13.5447 6.75 14.0625C6.75 14.5803 7.16973 15 7.6875 15H10.8125C11.3303 15 11.75 14.5803 11.75 14.0625C11.75 13.5447 11.3303 13.125 10.8125 13.125H7.6875Z" fill="#363636"/>
</svg>
