<svg width="16" height="18" viewBox="0 0 16 18" fill="none" xmlns="http://www.w3.org/2000/svg">
<path fill-rule="evenodd" clip-rule="evenodd" d="M2.625 2.75V15.25C2.625 15.5952 2.90482 15.875 3.25 15.875H12C13.0355 15.875 13.875 15.0355 13.875 14V4C13.875 2.96447 13.0355 2.125 12 2.125L3.25 2.125C2.90482 2.125 2.625 2.40482 2.625 2.75ZM0.75 15.25C0.75 16.6307 1.86929 17.75 3.25 17.75H12C14.0711 17.75 15.75 16.0711 15.75 14V4C15.75 1.92893 14.0711 0.25 12 0.25H3.25C1.86929 0.25 0.75 1.36929 0.75 2.75V15.25ZM5.125 12.4375C5.125 11.9197 5.54473 11.5 6.0625 11.5H10.4375C10.9553 11.5 11.375 11.9197 11.375 12.4375C11.375 12.9553 10.9553 13.375 10.4375 13.375H6.0625C5.54473 13.375 5.125 12.9553 5.125 12.4375ZM9.5 7.125C9.5 7.81536 8.94036 8.375 8.25 8.375C7.55964 8.375 7 7.81536 7 7.125C7 6.43464 7.55964 5.875 8.25 5.875C8.94036 5.875 9.5 6.43464 9.5 7.125ZM11.375 7.125C11.375 8.85089 9.97589 10.25 8.25 10.25C6.52411 10.25 5.125 8.85089 5.125 7.125C5.125 5.39911 6.52411 4 8.25 4C9.97589 4 11.375 5.39911 11.375 7.125Z" fill="#363636"/>
</svg>
