<svg width="56" height="56" viewBox="0 0 56 56" fill="none" xmlns="http://www.w3.org/2000/svg">
<path d="M49 35C49 36.2377 48.5083 37.4247 47.6332 38.2998C46.758 39.175 45.571 39.6667 44.3333 39.6667H16.3333L7 49V11.6667C7 10.429 7.49167 9.242 8.36683 8.36683C9.242 7.49167 10.429 7 11.6667 7H44.3333C45.571 7 46.758 7.49167 47.6332 8.36683C48.5083 9.242 49 10.429 49 11.6667V35Z" fill="#FB812C"/>
<path d="M34.5311 17.4991C33.7261 16.6955 32.6352 16.2441 31.4978 16.2441C30.3603 16.2441 29.2694 16.6955 28.4644 17.4991L27.9978 18.1991L27.2978 17.4991C26.8688 17.1314 26.3716 16.8518 25.8345 16.6763C25.2975 16.5007 24.7311 16.4327 24.1678 16.476C23.6044 16.5193 23.0552 16.6732 22.5513 16.9288C22.0474 17.1844 21.5988 17.5368 21.2311 17.9658C20.8634 18.3948 20.5838 18.892 20.4082 19.429C20.2327 19.9661 20.1647 20.5324 20.208 21.0958C20.2513 21.6591 20.4052 22.2084 20.6608 22.7123C20.9164 23.2162 21.2688 23.6648 21.6978 24.0325L27.9978 30.3325L34.2978 24.0325C36.3978 21.9325 36.1644 19.1325 34.5311 17.4991Z" fill="#F7F7F7"/>
</svg>
