<svg width="18" height="14" viewBox="0 0 18 14" fill="none" xmlns="http://www.w3.org/2000/svg">
<path fill-rule="evenodd" clip-rule="evenodd" d="M0.5625 1.0625C0.5625 0.544733 0.982233 0.125 1.5 0.125H16.5C17.0178 0.125 17.4375 0.544733 17.4375 1.0625C17.4375 1.58027 17.0178 2 16.5 2H1.5C0.982233 2 0.5625 1.58027 0.5625 1.0625ZM0.5625 7C0.5625 6.48223 0.982233 6.0625 1.5 6.0625H16.5C17.0178 6.0625 17.4375 6.48223 17.4375 7C17.4375 7.51777 17.0178 7.9375 16.5 7.9375H1.5C0.982233 7.9375 0.5625 7.51777 0.5625 7ZM1.5 12C0.982233 12 0.5625 12.4197 0.5625 12.9375C0.5625 13.4553 0.982233 13.875 1.5 13.875H16.5C17.0178 13.875 17.4375 13.4553 17.4375 12.9375C17.4375 12.4197 17.0178 12 16.5 12H1.5Z" fill="#ADADAD"/>
</svg>
