<svg width="16" height="16" viewBox="0 0 16 16" fill="none" xmlns="http://www.w3.org/2000/svg">
<path d="M0.083252 15.9164V14.6664C0.748808 14.6664 1.40617 14.6274 2.05534 14.5494C2.70436 14.4714 3.34082 14.3134 3.96471 14.0752C4.02888 14.0484 4.05825 13.9989 4.05284 13.9269C4.04756 13.8548 3.9995 13.808 3.90867 13.7867C3.25909 13.5312 2.73686 13.1242 2.342 12.5654C1.94728 12.0067 1.74992 11.3812 1.74992 10.6889V9.12165H4.82679C4.90165 9.12165 4.96311 9.09763 5.01117 9.04957C5.05922 9.00138 5.08325 8.93992 5.08325 8.8652V6.70165H7.60721C7.70346 6.70165 7.77693 6.66297 7.82763 6.58561C7.87846 6.50811 7.88249 6.42658 7.83971 6.34103L5.31096 1.20332L6.43429 0.637695L8.97117 5.79145C9.21686 6.29353 9.19603 6.77908 8.90867 7.24811C8.62117 7.71714 8.19429 7.95165 7.62804 7.95165H6.33325V8.91332C6.33325 9.31818 6.19145 9.66242 5.90784 9.94603C5.62408 10.2298 5.27978 10.3717 4.87492 10.3717H2.99992V10.705C2.99992 11.2018 3.15992 11.6342 3.47992 12.0023C3.79992 12.3703 4.19978 12.6169 4.6795 12.7419L4.9295 12.8044C5.42617 12.9326 5.69992 13.2584 5.75075 13.7819C5.80145 14.3053 5.58485 14.6846 5.10096 14.9196C4.32096 15.3032 3.50791 15.5652 2.66179 15.7056C1.81568 15.8462 0.956169 15.9164 0.083252 15.9164ZM11.431 13.7258L10.5399 12.8475C10.8584 12.5292 11.1049 12.1657 11.2795 11.7571C11.4542 11.3483 11.5416 10.9137 11.5416 10.4533C11.5416 9.99276 11.4542 9.55818 11.2795 9.14957C11.1049 8.74096 10.8584 8.37749 10.5399 8.05915L11.431 7.16811C11.8594 7.59645 12.1933 8.09242 12.4326 8.65603C12.6719 9.21964 12.7916 9.81874 12.7916 10.4533C12.7916 11.0879 12.6719 11.6848 12.4326 12.2442C12.1933 12.8035 11.8594 13.2973 11.431 13.7258ZM13.6089 15.9164L12.7178 15.0254C13.3205 14.4229 13.7879 13.7319 14.1201 12.9525C14.4523 12.173 14.6185 11.34 14.6185 10.4533C14.6185 9.55804 14.4523 8.72283 14.1201 7.9477C13.7879 7.17256 13.3205 6.48374 12.7178 5.88124L13.6089 4.9902C14.3268 5.70811 14.8829 6.53346 15.2772 7.46624C15.6714 8.39888 15.8685 9.39457 15.8685 10.4533C15.8685 11.5035 15.6714 12.4971 15.2772 13.4342C14.8829 14.3711 14.3268 15.1985 13.6089 15.9164Z" fill="#313333"/>
</svg>
