<svg width="41" height="40" viewBox="0 0 41 40" fill="none" xmlns="http://www.w3.org/2000/svg">
<path fill-rule="evenodd" clip-rule="evenodd" d="M27.7961 39.5827V24.4154H32.8878L33.6496 18.5051H27.7941V14.7314C27.7941 13.0199 28.27 11.8527 30.7258 11.8527H33.8552V6.56518C32.3397 6.40236 30.8164 6.3239 29.2923 6.33018C24.7803 6.33018 21.692 9.08556 21.692 14.1439V18.5051H16.5846V24.4154H21.69V39.5827H3.07997C1.88539 39.5827 0.917969 38.6153 0.917969 37.4207V2.57802C0.917969 1.38343 1.88539 0.416016 3.07997 0.416016H37.9226C39.1172 0.416016 40.0846 1.38343 40.0846 2.57802V37.4207C40.0846 38.6153 39.1172 39.5827 37.9226 39.5827H27.7961Z" fill="#415794"/>
</svg>
