<svg width="21" height="21" viewBox="0 0 21 21" fill="none" xmlns="http://www.w3.org/2000/svg">
<path fill-rule="evenodd" clip-rule="evenodd" d="M7.74225 1.20465C9.22725 -0.40155 11.7728 -0.40155 13.2578 1.20465L20.0078 8.50543C20.646 9.1953 21 10.0997 21 11.0377V18.7577C21 19.9962 19.9928 21 18.75 21H2.25C1.00725 21 0 19.9962 0 18.7577V11.0377C0 10.0997 0.353999 9.1953 0.992249 8.50543L7.74225 1.20465ZM8.25 19.5052H12.75V12.7784H8.25V19.5052ZM6.75 19.5052H2.25C1.836 19.5052 1.5 19.1703 1.5 18.7577V11.0377C1.5 10.4749 1.71225 9.93224 2.0955 9.51817L8.8455 2.21739C9.7365 1.25397 11.2635 1.25397 12.1545 2.21739L18.9045 9.51817C19.2877 9.93224 19.5 10.4749 19.5 11.0377V18.7577C19.5 19.1703 19.164 19.5052 18.75 19.5052H14.25V12.7784C14.25 11.9525 13.5787 11.2836 12.75 11.2836H8.25C7.42125 11.2836 6.75 11.9525 6.75 12.7784V19.5052Z" fill="white"/>
</svg>
