<svg width="20" height="20" viewBox="0 0 20 20" fill="none" xmlns="http://www.w3.org/2000/svg">
<path d="M10.6758 20L10.5076 17.1724H9.58203C7.14771 17.1724 5.08079 16.3386 3.38129 14.6709C1.68178 13.0032 0.832031 10.975 0.832031 8.58622C0.832031 6.19747 1.68178 4.16924 3.38129 2.50154C5.08079 0.833847 7.14771 0 9.58203 0C10.7992 0 11.9368 0.223242 12.9948 0.669726C14.0528 1.11621 14.9793 1.72959 15.7743 2.50986C16.5695 3.28995 17.1945 4.19911 17.6495 5.23733C18.1045 6.27555 18.332 7.39184 18.332 8.58622C18.332 9.80404 18.1385 10.9733 17.7515 12.094C17.3645 13.2146 16.8327 14.2631 16.156 15.2395C15.4795 16.2158 14.6729 17.1074 13.7361 17.9144C12.7995 18.7215 11.7794 19.4167 10.6758 20ZM12.3164 17.0115C13.6107 15.9382 14.6634 14.6815 15.4746 13.2416C16.2858 11.8016 16.6914 10.2498 16.6914 8.58622C16.6914 6.63644 16.0033 4.98627 14.627 3.63573C13.2507 2.28519 11.569 1.60992 9.58203 1.60992C7.59505 1.60992 5.91341 2.28519 4.53711 3.63573C3.16081 4.98627 2.47266 6.63644 2.47266 8.58622C2.47266 10.536 3.16081 12.1862 4.53711 13.5367C5.91341 14.8873 7.59505 15.5625 9.58203 15.5625H12.3164V17.0115ZM9.58613 14.2456C9.8541 14.2456 10.0817 14.1538 10.2689 13.9701C10.4559 13.7863 10.5495 13.5631 10.5495 13.3003C10.5495 13.0376 10.4559 12.8143 10.2689 12.6306C10.0817 12.4469 9.8541 12.355 9.58613 12.355C9.31835 12.355 9.09085 12.4469 8.90363 12.6306C8.71642 12.8143 8.62281 13.0376 8.62281 13.3003C8.62281 13.5631 8.71642 13.7863 8.90363 13.9701C9.09085 14.1538 9.31835 14.2456 9.58613 14.2456ZM8.95094 10.9721H10.255C10.269 10.4838 10.3395 10.1219 10.4666 9.8865C10.5935 9.65127 10.938 9.25774 11.5002 8.7059C11.8214 8.39089 12.0826 8.05925 12.2839 7.71097C12.4851 7.36287 12.5857 6.97765 12.5857 6.55531C12.5857 5.71172 12.2923 5.06534 11.7053 4.61617C11.1185 4.16682 10.4177 3.94215 9.60309 3.94215C8.86408 3.94215 8.24046 4.14241 7.73223 4.54292C7.22382 4.94325 6.86023 5.42551 6.64148 5.9897L7.85719 6.45604C7.97641 6.14514 8.17064 5.85071 8.43988 5.57273C8.70913 5.29475 9.09686 5.15576 9.60309 5.15576C10.1583 5.15576 10.5713 5.30539 10.842 5.60466C11.1126 5.9041 11.2478 6.23199 11.2478 6.58832C11.2478 6.91996 11.1549 7.20823 10.9692 7.45311C10.7834 7.698 10.5525 7.95603 10.2763 8.22721C9.69423 8.72253 9.32783 9.13869 9.17707 9.4757C9.02631 9.81289 8.95094 10.3117 8.95094 10.9721Z" fill="#A4A4A4"/>
</svg>
