<svg width="20" height="20" viewBox="0 0 20 20" fill="none" xmlns="http://www.w3.org/2000/svg">
<path d="M10.4167 17.6118L10.2886 15.4163H9.58342C7.72869 15.4163 6.1539 14.7689 4.85904 13.4741C3.56418 12.1792 2.91675 10.6044 2.91675 8.74967C2.91675 6.89495 3.56418 5.32016 4.85904 4.0253C6.1539 2.73044 7.72869 2.08301 9.58342 2.08301C10.5108 2.08301 11.3775 2.25634 12.1836 2.60301C12.9897 2.94967 13.6956 3.42592 14.3013 4.03176C14.9072 4.63745 15.3834 5.34336 15.7301 6.14947C16.0767 6.95558 16.2501 7.82231 16.2501 8.74967C16.2501 9.69523 16.1027 10.6031 15.8078 11.4732C15.5129 12.3434 15.1077 13.1575 14.5922 13.9155C14.0767 14.6736 13.4622 15.3659 12.7484 15.9924C12.0348 16.6191 11.2576 17.1588 10.4167 17.6118ZM11.6667 15.2913C12.6529 14.458 13.4549 13.4823 14.073 12.3643C14.6911 11.2462 15.0001 10.0413 15.0001 8.74967C15.0001 7.23579 14.4758 5.95454 13.4272 4.90592C12.3786 3.85731 11.0973 3.33301 9.58342 3.33301C8.06953 3.33301 6.78828 3.85731 5.73966 4.90592C4.69105 5.95454 4.16675 7.23579 4.16675 8.74967C4.16675 10.2636 4.69105 11.5448 5.73966 12.5934C6.78828 13.642 8.06953 14.1663 9.58342 14.1663H11.6667V15.2913ZM9.58654 13.1438C9.79071 13.1438 9.96411 13.0725 10.1067 12.9299C10.2492 12.7872 10.3205 12.6139 10.3205 12.4099C10.3205 12.2059 10.2492 12.0325 10.1067 11.8899C9.96411 11.7472 9.79071 11.6759 9.58654 11.6759C9.38251 11.6759 9.20918 11.7472 9.06654 11.8899C8.9239 12.0325 8.85258 12.2059 8.85258 12.4099C8.85258 12.6139 8.9239 12.7872 9.06654 12.9299C9.20918 13.0725 9.38251 13.1438 9.58654 13.1438ZM9.10258 10.6022H10.0961C10.1068 10.223 10.1606 9.94204 10.2574 9.75926C10.354 9.57662 10.6165 9.27106 11.0449 8.84259C11.2896 8.59801 11.4886 8.34051 11.642 8.07009C11.7953 7.79981 11.872 7.50072 11.872 7.1728C11.872 6.5178 11.6483 6.01592 11.2011 5.66717C10.754 5.31829 10.2202 5.14384 9.59946 5.14384C9.0364 5.14384 8.56126 5.29933 8.17404 5.6103C7.78668 5.92113 7.50966 6.29558 7.343 6.73363L8.26925 7.09572C8.36008 6.85433 8.50807 6.62572 8.71321 6.40988C8.91835 6.19405 9.21376 6.08613 9.59946 6.08613C10.0225 6.08613 10.3372 6.20231 10.5434 6.43467C10.7495 6.66717 10.8526 6.92176 10.8526 7.19842C10.8526 7.45592 10.7818 7.67974 10.6403 7.86988C10.4988 8.06002 10.3228 8.26037 10.1124 8.47092C9.6689 8.85551 9.38973 9.17863 9.27487 9.4403C9.16001 9.70211 9.10258 10.0894 9.10258 10.6022Z" fill="#313333"/>
</svg>
