<svg width="16" height="16" viewBox="0 0 16 16" fill="none" xmlns="http://www.w3.org/2000/svg">
<path fill-rule="evenodd" clip-rule="evenodd" d="M1.6329 2.79514C2.39504 1.95857 3.4822 1.49902 4.76 1.49902C5.92389 1.49902 7.16673 2.04913 7.99908 3.12444C8.82815 2.04969 10.0662 1.49902 11.24 1.49902C12.5137 1.49902 13.6005 1.95622 14.3637 2.79146C15.1199 3.61907 15.5 4.75308 15.5 6.0125C15.5 8.17783 14.3872 9.92058 12.9784 11.2755C11.5728 12.6275 9.80786 13.6581 8.34464 14.4152C8.12746 14.5275 7.86916 14.5269 7.65248 14.4136C6.18921 13.6485 4.42375 12.6256 3.01909 11.2801C1.60945 9.92994 0.5 8.19212 0.5 6.0125C0.5 4.75742 0.878044 3.62372 1.6329 2.79514ZM2.74174 3.80532C2.28672 4.30479 2 5.05283 2 6.0125C2 7.63608 2.81606 9.00859 4.05667 10.1969C5.20308 11.295 6.65778 12.1818 8.00152 12.9014C9.33729 12.191 10.7916 11.2977 11.9386 10.1944C13.1825 8.99805 14 7.61999 14 6.0125C14 5.04951 13.7118 4.30178 13.2563 3.80325C12.8078 3.31235 12.1397 2.99902 11.24 2.99902C10.2641 2.99902 9.14678 3.62639 8.71251 4.94775C8.61135 5.25554 8.32399 5.46358 8 5.46358C7.67601 5.46358 7.38865 5.25554 7.28749 4.94775C6.85368 3.62781 5.72522 2.99902 4.76 2.99902C3.85733 2.99902 3.18949 3.31384 2.74174 3.80532Z" fill="#878280"/>
</svg>
