<svg width="23" height="22" viewBox="0 0 23 22" fill="none" xmlns="http://www.w3.org/2000/svg">
<path d="M9.2776 20.028C9.40224 18.5723 9.51304 17.1781 9.6146 15.7716C9.18373 15.37 7.48794 13.9558 6.80932 12.5185C5.46284 9.66864 2.69295 9.51475 2.93608 8.91461C3.00379 8.74842 3.15922 8.51452 3.77013 8.59146C5.00119 8.74534 6.82932 9.88408 7.43254 10.732C8.03576 11.5814 8.90982 12.8125 9.78541 13.2649C9.81465 12.8155 9.84081 12.4016 9.86543 12.0215C9.95438 10.5842 10.0135 2.93384 10.0952 0.52038C10.1046 0.243782 9.87287 0.0181575 9.59724 0.0431691C2.95289 0.646114 0 5.34381 0 11.0536C0 16.151 2.54893 20.4422 7.68366 21.7336C8.30579 21.8901 8.96068 21.5816 9.1217 20.9607C9.19424 20.6809 9.24771 20.3711 9.2776 20.028ZM6.48463 6.04008C6.61543 5.97853 7.52179 5.87389 8.19426 7.31115C8.74516 8.48836 8.20504 9.3778 8.07423 9.43935C7.94343 9.50091 7.03706 9.60555 6.36459 8.16828C5.69213 6.72948 6.35383 6.10163 6.48463 6.04008ZM5.57056 13.348C5.50593 13.4772 4.85808 14.1205 3.44082 13.4065C2.02202 12.6924 2.15436 11.7891 2.21899 11.6614C2.28362 11.5322 2.93147 10.8889 4.34873 11.6029C5.50901 12.1862 5.63519 13.2203 5.57056 13.348Z" fill="#FB812C"/>
<path fill-rule="evenodd" clip-rule="evenodd" d="M12.1554 0.00767805C11.8953 -0.00744875 11.6766 0.202021 11.6776 0.462645C11.6976 5.34639 12.0153 10.8515 12.1137 12.6755C12.5491 12.3693 13.0416 11.1828 13.3986 10.4519C14.2326 8.74534 16.2993 8.17597 16.5593 8.50067C17.0025 9.05311 15.6176 8.89922 14.702 10.9212C14.5881 11.1736 14.5404 11.4891 14.4481 11.8261C14.2434 12.5755 13.8048 13.3634 13.3663 14.0235C13.4955 13.9681 13.6202 13.9066 13.7371 13.8512C14.0557 13.6958 15.3852 12.6509 15.6053 12.6509C15.6868 12.6509 15.7607 12.6678 15.8269 12.7001C15.9777 12.7755 16.0684 12.9125 16.0792 13.0756C16.1131 13.6204 14.0557 15.2038 14.0141 15.2315C13.634 15.4854 12.7153 15.8624 12.2999 16.0286C12.3799 17.3812 12.4676 18.6939 12.563 20.0326C12.5918 20.4267 12.6528 20.7773 12.7394 21.0894C12.9028 21.6775 13.5211 21.9734 14.12 21.8561C19.854 20.7334 22.1576 16.3234 22.1576 11.0536C22.1576 5.2135 19.4562 0.432133 12.1554 0.00767805ZM13.4986 6.51712C13.494 8.10365 14.3588 8.39603 14.5035 8.39603C14.6481 8.39757 15.5145 7.82204 15.5191 6.52327C15.5237 4.93674 14.6589 4.6459 14.5142 4.64436C14.3696 4.64282 13.5032 4.92905 13.4986 6.51712ZM15.8361 11.5045C15.8884 11.6399 16.4685 12.3431 17.9504 11.7722C19.4308 11.2013 19.3892 10.2903 19.3369 10.1549C19.2846 10.0195 18.4352 9.41935 17.2226 9.88715C15.7422 10.4581 15.7838 11.369 15.8361 11.5045Z" fill="#FB812C"/>
</svg>
