<?xml version="1.0" encoding="UTF-8"?>
<svg version="1.1" xmlns="http://www.w3.org/2000/svg" width="33" height="38">
<path d="M0 0 C10.89 0 21.78 0 33 0 C33 12.54 33 25.08 33 38 C22.11 38 11.22 38 0 38 C0 25.46 0 12.92 0 0 Z " fill="#FEFEFE" transform="translate(0,0)"/>
<path d="M0 0 C4.20475482 1.6997945 6.20472472 3.8425204 8 8 C8.56796579 13.20635305 7.88868756 16.6171637 5 21 C1.21568446 24.44028686 -2.71595276 24.51227536 -7.625 24.3515625 C-11.08089231 23.83999949 -12.73468427 22.61927131 -15 20 C-17.25059535 16.03466534 -17.47404865 12.50346218 -17 8 C-12.70377848 0.14828481 -8.43392647 -0.86363407 0 0 Z " fill="#C0C0C0" transform="translate(22,8)"/>
<path d="M0 0 C8.83700441 -0.44933921 8.83700441 -0.44933921 13 3 C16.17725642 6.94418038 16.52516147 10.010966 16 15 C14.72874932 18.4792124 13.62433795 20.46485319 10.8125 22.875 C7.00640438 24.39743825 4.08332139 24.20762651 0 24 C0 23.34 0 22.68 0 22 C2.97 21.67 5.94 21.34 9 21 C8.67 19.68 8.34 18.36 8 17 C7.01 16.67 6.02 16.34 5 16 C5.33 14.02 5.66 12.04 6 10 C4.68 9.01 3.36 8.02 2 7 C3.4540625 6.566875 3.4540625 6.566875 4.9375 6.125 C8.10664203 5.35785318 8.10664203 5.35785318 9 3 C5.7 3 2.4 3 -1 3 C-0.67 2.01 -0.34 1.02 0 0 Z " fill="#BEBEBE" transform="translate(14,8)"/>
<path d="M0 0 C0.66 0.33 1.32 0.66 2 1 C1.34 2.32 0.68 3.64 0 5 C-2.31 5 -4.62 5 -7 5 C-7.66 3.68 -8.32 2.36 -9 1 C-6.01405576 -0.49297212 -3.29146376 -0.11755228 0 0 Z " fill="#F7F7F7" transform="translate(21,10)"/>
<path d="M0 0 C2.64 0.33 5.28 0.66 8 1 C8.33 1.99 8.66 2.98 9 4 C6.01405576 5.49297212 3.29146376 5.11755228 0 5 C-0.66 4.67 -1.32 4.34 -2 4 C-1.34 2.68 -0.68 1.36 0 0 Z " fill="#F7F7F7" transform="translate(14,25)"/>
<path d="M0 0 C1.2065625 0.0309375 1.2065625 0.0309375 2.4375 0.0625 C2.81968767 1.71864657 3.15145102 3.38707024 3.4375 5.0625 C2.4375 6.0625 2.4375 6.0625 -0.125 6.125 C-1.3315625 6.0940625 -1.3315625 6.0940625 -2.5625 6.0625 C-2.94468767 4.40635343 -3.27645102 2.73792976 -3.5625 1.0625 C-2.5625 0.0625 -2.5625 0.0625 0 0 Z " fill="#FBFBFB" transform="translate(17.5625,16.9375)"/>
<path d="M0 0 C2 2 2 2 2.265625 3.875 C2.26046875 4.57625 2.2553125 5.2775 2.25 6 C2.25515625 6.70125 2.2603125 7.4025 2.265625 8.125 C2 10 2 10 0 12 C-2.08901197 8.60535554 -2.34361606 5.95158471 -2 2 C-1.34 1.34 -0.68 0.68 0 0 Z " fill="#FBFBFB" transform="translate(25,14)"/>
<path d="M0 0 C3 2 3 2 3.3984375 3.875 C3.39070312 4.57625 3.38296875 5.2775 3.375 6 C3.38273438 6.70125 3.39046875 7.4025 3.3984375 8.125 C3 10 3 10 0 12 C-1.12256131 9.75487738 -1.13413762 8.48543351 -1.125 6 C-1.12886719 4.948125 -1.12886719 4.948125 -1.1328125 3.875 C-1 2 -1 2 0 0 Z " fill="#FBFBFB" transform="translate(9,14)"/>
</svg>
