<svg width="20" height="20" viewBox="0 0 20 20" fill="none" xmlns="http://www.w3.org/2000/svg">
<path d="M5.83325 7.0751L7.34763 5.56865L5.83325 4.06219L4.32679 5.56865L5.83325 7.0751ZM3.58971 11.5701C3.16874 11.5701 2.81242 11.4243 2.52075 11.1326C2.22909 10.8409 2.08325 10.4847 2.08325 10.0639V3.07656C2.08325 2.65573 2.22909 2.29948 2.52075 2.00781C2.81242 1.71615 3.16874 1.57031 3.58971 1.57031H16.4101C16.8311 1.57031 17.1874 1.71615 17.4791 2.00781C17.7708 2.29948 17.9166 2.65573 17.9166 3.07656V10.0639C17.9166 10.4847 17.7708 10.8409 17.4791 11.1326C17.1874 11.4243 16.8311 11.5701 16.4101 11.5701H13.7868C13.8412 11.3618 13.8776 11.1535 13.8958 10.9453C13.9139 10.737 13.9145 10.5286 13.8974 10.3203H16.4101C16.4743 10.3203 16.533 10.2936 16.5864 10.2401C16.6398 10.1866 16.6666 10.1279 16.6666 10.0639V3.07656C16.6666 3.01253 16.6398 2.95378 16.5864 2.90031C16.533 2.84698 16.4743 2.82031 16.4101 2.82031H3.58971C3.52554 2.82031 3.46679 2.84698 3.41346 2.90031C3.35999 2.95378 3.33325 3.01253 3.33325 3.07656V10.0639C3.33325 10.1279 3.35999 10.1866 3.41346 10.2401C3.46679 10.2936 3.52554 10.3203 3.58971 10.3203H6.10242C6.08534 10.5286 6.08589 10.737 6.10408 10.9453C6.12228 11.1535 6.1586 11.3618 6.21304 11.5701H3.58971ZM13.7489 5.94531C14.038 5.94531 14.2841 5.84413 14.487 5.64177C14.6901 5.43941 14.7916 5.19365 14.7916 4.90448C14.7916 4.61545 14.6904 4.36941 14.488 4.16635C14.2857 3.96344 14.04 3.86198 13.751 3.86198C13.4618 3.86198 13.2158 3.96316 13.0128 4.16552C12.8098 4.36788 12.7083 4.61358 12.7083 4.9026C12.7083 5.19163 12.8094 5.43767 13.0118 5.64073C13.2142 5.84378 13.4598 5.94531 13.7489 5.94531ZM4.58325 18.4291V16.9676C4.58325 16.5616 4.69596 16.1837 4.92138 15.8339C5.14679 15.484 5.447 15.2236 5.822 15.0526C6.48117 14.7491 7.16145 14.5202 7.86284 14.3659C8.56422 14.2115 9.27658 14.1343 9.99992 14.1343C10.7233 14.1343 11.4356 14.2115 12.137 14.3659C12.8384 14.5202 13.5187 14.7491 14.1778 15.0526C14.5528 15.2236 14.853 15.4834 15.0785 15.832C15.3039 16.1806 15.4166 16.5582 15.4166 16.9649V18.4291H4.58325ZM5.83325 17.1791H14.1666V16.9676C14.1666 16.8009 14.118 16.6482 14.0208 16.5093C13.9235 16.3704 13.7985 16.2662 13.6458 16.1968C13.0624 15.9329 12.4652 15.7315 11.8541 15.5926C11.243 15.4537 10.6249 15.3843 9.99992 15.3843C9.37492 15.3843 8.75686 15.4537 8.14575 15.5926C7.53464 15.7315 6.93742 15.9329 6.35408 16.1968C6.20131 16.2662 6.07631 16.3704 5.97908 16.5093C5.88186 16.6482 5.83325 16.8009 5.83325 16.9676V17.1791ZM9.99992 13.1407C9.30658 13.1407 8.71659 12.8974 8.22992 12.4107C7.74325 11.9241 7.49992 11.3341 7.49992 10.6407C7.49992 9.9474 7.74325 9.3574 8.22992 8.87073C8.71659 8.38406 9.30658 8.14073 9.99992 8.14073C10.6933 8.14073 11.2833 8.38406 11.7699 8.87073C12.2566 9.3574 12.4999 9.9474 12.4999 10.6407C12.4999 11.3341 12.2566 11.9241 11.7699 12.4107C11.2833 12.8974 10.6933 13.1407 9.99992 13.1407ZM9.99992 11.8907C10.3471 11.8907 10.6423 11.7692 10.8853 11.5261C11.1284 11.2831 11.2499 10.988 11.2499 10.6407C11.2499 10.2935 11.1284 9.99837 10.8853 9.75531C10.6423 9.51226 10.3471 9.39073 9.99992 9.39073C9.6527 9.39073 9.35756 9.51226 9.1145 9.75531C8.87145 9.99837 8.74992 10.2935 8.74992 10.6407C8.74992 10.988 8.87145 11.2831 9.1145 11.5261C9.35756 11.7692 9.6527 11.8907 9.99992 11.8907Z" fill="white"/>
</svg>
