<svg width="25" height="24" viewBox="0 0 25 24" fill="none" xmlns="http://www.w3.org/2000/svg">
<path d="M8.33331 5.75C7.90623 5.75 7.55206 5.41 7.55206 5V2C7.55206 1.59 7.90623 1.25 8.33331 1.25C8.7604 1.25 9.11456 1.59 9.11456 2V5C9.11456 5.41 8.7604 5.75 8.33331 5.75Z" fill="white"/>
<path d="M16.6667 5.75C16.2396 5.75 15.8854 5.41 15.8854 5V2C15.8854 1.59 16.2396 1.25 16.6667 1.25C17.0938 1.25 17.4479 1.59 17.4479 2V5C17.4479 5.41 17.0938 5.75 16.6667 5.75Z" fill="white"/>
<path d="M8.85417 14.5C8.71875 14.5 8.58333 14.47 8.45833 14.42C8.32292 14.37 8.21875 14.3 8.11458 14.21C7.92708 14.02 7.8125 13.77 7.8125 13.5C7.8125 13.37 7.84375 13.24 7.89584 13.12C7.94792 13 8.02083 12.89 8.11458 12.79C8.21875 12.7 8.32292 12.63 8.45833 12.58C8.83333 12.43 9.30208 12.51 9.59375 12.79C9.78125 12.98 9.89583 13.24 9.89583 13.5C9.89583 13.56 9.88542 13.63 9.875 13.7C9.86458 13.76 9.84375 13.82 9.8125 13.88C9.79166 13.94 9.76042 14 9.71875 14.06C9.6875 14.11 9.63542 14.16 9.59375 14.21C9.39583 14.39 9.125 14.5 8.85417 14.5Z" fill="white"/>
<path d="M12.5 14.5C12.3646 14.5 12.2291 14.47 12.1041 14.42C11.9687 14.37 11.8646 14.3 11.7604 14.21C11.5729 14.02 11.4583 13.77 11.4583 13.5C11.4583 13.37 11.4896 13.24 11.5416 13.12C11.5937 13 11.6666 12.89 11.7604 12.79C11.8646 12.7 11.9687 12.63 12.1041 12.58C12.4791 12.42 12.9479 12.51 13.2396 12.79C13.4271 12.98 13.5416 13.24 13.5416 13.5C13.5416 13.56 13.5312 13.63 13.5208 13.7C13.5104 13.76 13.4896 13.82 13.4583 13.88C13.4375 13.94 13.4062 14 13.3646 14.06C13.3333 14.11 13.2812 14.16 13.2396 14.21C13.0416 14.39 12.7708 14.5 12.5 14.5Z" fill="white"/>
<path d="M16.1459 14.5C16.0104 14.5 15.875 14.47 15.75 14.42C15.6146 14.37 15.5104 14.3 15.4063 14.21C15.3646 14.16 15.3229 14.11 15.2813 14.06C15.2396 14 15.2084 13.94 15.1875 13.88C15.1563 13.82 15.1354 13.76 15.125 13.7C15.1146 13.63 15.1042 13.56 15.1042 13.5C15.1042 13.24 15.2188 12.98 15.4063 12.79C15.5104 12.7 15.6146 12.63 15.75 12.58C16.1354 12.42 16.5938 12.51 16.8854 12.79C17.0729 12.98 17.1875 13.24 17.1875 13.5C17.1875 13.56 17.1771 13.63 17.1667 13.7C17.1563 13.76 17.1354 13.82 17.1042 13.88C17.0834 13.94 17.0521 14 17.0104 14.06C16.9792 14.11 16.9271 14.16 16.8854 14.21C16.6875 14.39 16.4167 14.5 16.1459 14.5Z" fill="white"/>
<path d="M8.85417 18C8.71875 18 8.58333 17.97 8.45833 17.92C8.33333 17.87 8.21875 17.8 8.11458 17.71C7.92708 17.52 7.8125 17.26 7.8125 17C7.8125 16.87 7.84375 16.74 7.89584 16.62C7.94792 16.49 8.02083 16.38 8.11458 16.29C8.5 15.92 9.20833 15.92 9.59375 16.29C9.78125 16.48 9.89583 16.74 9.89583 17C9.89583 17.26 9.78125 17.52 9.59375 17.71C9.39583 17.89 9.125 18 8.85417 18Z" fill="white"/>
<path d="M12.5 18C12.2291 18 11.9583 17.89 11.7604 17.71C11.5729 17.52 11.4583 17.26 11.4583 17C11.4583 16.87 11.4896 16.74 11.5416 16.62C11.5937 16.49 11.6666 16.38 11.7604 16.29C12.1458 15.92 12.8541 15.92 13.2396 16.29C13.3333 16.38 13.4062 16.49 13.4583 16.62C13.5104 16.74 13.5416 16.87 13.5416 17C13.5416 17.26 13.4271 17.52 13.2396 17.71C13.0416 17.89 12.7708 18 12.5 18Z" fill="white"/>
<path d="M16.1459 18C15.875 18 15.6042 17.89 15.4063 17.71C15.3125 17.62 15.2396 17.51 15.1875 17.38C15.1354 17.26 15.1042 17.13 15.1042 17C15.1042 16.87 15.1354 16.74 15.1875 16.62C15.2396 16.49 15.3125 16.38 15.4063 16.29C15.6459 16.06 16.0104 15.95 16.3438 16.02C16.4167 16.03 16.4792 16.05 16.5417 16.08C16.6042 16.1 16.6667 16.13 16.7292 16.17C16.7813 16.2 16.8334 16.25 16.8854 16.29C17.0729 16.48 17.1875 16.74 17.1875 17C17.1875 17.26 17.0729 17.52 16.8854 17.71C16.6875 17.89 16.4167 18 16.1459 18Z" fill="white"/>
<path d="M21.3541 9.83997H3.64581C3.21873 9.83997 2.86456 9.49997 2.86456 9.08997C2.86456 8.67997 3.21873 8.33997 3.64581 8.33997H21.3541C21.7812 8.33997 22.1354 8.67997 22.1354 9.08997C22.1354 9.49997 21.7812 9.83997 21.3541 9.83997Z" fill="white"/>
<path d="M16.6667 22.75H8.33333C4.53125 22.75 2.34375 20.65 2.34375 17V8.5C2.34375 4.85 4.53125 2.75 8.33333 2.75H16.6667C20.4688 2.75 22.6562 4.85 22.6562 8.5V17C22.6562 20.65 20.4688 22.75 16.6667 22.75ZM8.33333 4.25C5.35417 4.25 3.90625 5.64 3.90625 8.5V17C3.90625 19.86 5.35417 21.25 8.33333 21.25H16.6667C19.6458 21.25 21.0938 19.86 21.0938 17V8.5C21.0938 5.64 19.6458 4.25 16.6667 4.25H8.33333Z" fill="white"/>
</svg>
