<svg width="21" height="20" viewBox="0 0 21 20" fill="none" xmlns="http://www.w3.org/2000/svg">
    <path fill-rule="evenodd" clip-rule="evenodd" d="M18 3.51003C18 1.57249 16.247 0 14.087 0H3.91304C1.75304 0 0 1.57249 0 3.51003V8.59254C0 9.90529 1.83133 10.502 2.77047 9.49112L5.06346 7.02005H14.087C16.247 7.02005 18 5.44756 18 3.51003ZM14.087 1.40401C15.3861 1.40401 16.4348 2.3447 16.4348 3.51003C16.4348 4.67535 15.3861 5.61604 14.087 5.61604H4.32785L1.56522 8.59254V3.51003C1.56522 2.3447 2.61391 1.40401 3.91304 1.40401H14.087Z" fill="white"/>
    <path fill-rule="evenodd" clip-rule="evenodd" d="M4 13.679C4 11.6482 5.65565 10 7.69565 10H17.3043C19.3443 10 21 11.6482 21 13.679V18.528C21 19.8377 19.4108 20.4926 18.4795 19.5655L16.2621 17.3581H7.69565C5.65565 17.3581 4 15.7099 4 13.679ZM7.69565 11.4716C6.4687 11.4716 5.47826 12.4576 5.47826 13.679C5.47826 14.9005 6.4687 15.8865 7.69565 15.8865H16.8683L19.5217 18.528V13.679C19.5217 12.4576 18.5313 11.4716 17.3043 11.4716H7.69565Z" fill="white"/>
</svg>
