<svg width="24" height="19" viewBox="0 0 24 19" fill="none" xmlns="http://www.w3.org/2000/svg">
<path d="M17.25 9.25C19.3211 9.25 21 7.57107 21 5.5C21 3.42893 19.3211 1.75 17.25 1.75C15.1789 1.75 13.5 3.42893 13.5 5.5C13.5 7.57107 15.1789 9.25 17.25 9.25Z" fill="#DDDDDD"/>
<path fill-rule="evenodd" clip-rule="evenodd" d="M17.25 10C13.5375 10 10.5 12.3077 10.5 14.6154C10.5 16.2085 11.7915 17.5 13.3846 17.5H21.1154C22.7085 17.5 24 16.2085 24 14.6154C24 12.3077 20.9625 10 17.25 10ZM12.75 14.6154C12.75 14.4615 12.8942 13.9073 13.7821 13.2792C14.6138 12.691 15.8445 12.25 17.25 12.25C18.6555 12.25 19.8862 12.691 20.7179 13.2792C21.6058 13.9073 21.75 14.4615 21.75 14.6154C21.75 14.9659 21.4659 15.25 21.1154 15.25H13.3846C13.0341 15.25 12.75 14.9659 12.75 14.6154Z" fill="#DDDDDD"/>
<path d="M8.25 10C3.7125 10 0 12.7692 0 15.5385C0 17.4502 1.54978 19 3.46154 19H13.0385C14.9502 19 16.5 17.4502 16.5 15.5385C16.5 12.7692 12.7875 10 8.25 10Z" fill="#DDDDDD"/>
<path d="M12.75 4.75C12.75 7.23528 10.7353 9.25 8.25 9.25C5.76472 9.25 3.75 7.23528 3.75 4.75C3.75 2.26472 5.76472 0.25 8.25 0.25C10.7353 0.25 12.75 2.26472 12.75 4.75Z" fill="#DDDDDD"/>
</svg>
