<svg width="16" height="18" viewBox="0 0 16 18" fill="none" xmlns="http://www.w3.org/2000/svg">
<path fill-rule="evenodd" clip-rule="evenodd" d="M2.375 13.9212V15.25C2.375 15.5952 2.65482 15.875 3 15.875H11.75C12.7855 15.875 13.625 15.0355 13.625 14V13.4983C13.0734 13.8174 12.433 14 11.75 14H3C2.78419 14 2.57476 13.9727 2.375 13.9212ZM0.5 11.5V2.75C0.5 2.66371 0.504372 2.57843 0.512907 2.49439C0.551315 2.1162 0.674018 1.76293 0.861933 1.45366C0.996104 1.23284 1.16352 1.03446 1.35723 0.865461C1.67599 0.587367 2.06595 0.388826 2.49616 0.300791C2.65891 0.267489 2.82741 0.25 3 0.25H11.75C13.6916 0.25 15.2886 1.72562 15.4806 3.61658C15.4934 3.74265 15.5 3.87056 15.5 4V10.25V14C15.5 16.0711 13.8211 17.75 11.75 17.75H3C1.61929 17.75 0.5 16.6307 0.5 15.25V11.5ZM2.375 11.5006C2.37534 11.8455 2.65503 12.125 3 12.125H11.75C12.7855 12.125 13.625 11.2855 13.625 10.25V4C13.625 3.87056 13.6119 3.74418 13.5869 3.62212C13.4121 2.76772 12.6561 2.125 11.75 2.125L3 2.125C2.82741 2.125 2.67116 2.19496 2.55806 2.30806C2.45909 2.40702 2.39316 2.53902 2.37823 2.6861C2.37609 2.70711 2.375 2.72843 2.375 2.75V11.5C2.375 11.5002 2.375 11.5004 2.375 11.5006ZM4.875 5.5625C4.875 5.04473 5.29473 4.625 5.8125 4.625H10.1875C10.7053 4.625 11.125 5.04473 11.125 5.5625C11.125 6.08027 10.7053 6.5 10.1875 6.5H5.8125C5.29473 6.5 4.875 6.08027 4.875 5.5625Z" fill="#363636"/>
</svg>
