<svg width="20" height="20" viewBox="0 0 20 20" fill="none" xmlns="http://www.w3.org/2000/svg">
<g clip-path="url(#clip0_312_64961)">
<path fill-rule="evenodd" clip-rule="evenodd" d="M8.99838 2.5H11.0015C11.1387 2.5 11.2499 2.61121 11.2499 2.74842C11.2499 5.00902 13.6971 6.42203 15.6549 5.29168C15.7737 5.22309 15.9256 5.26379 15.9942 5.38258L16.9958 7.11743C17.0644 7.23624 17.0237 7.38817 16.9049 7.45677C14.9471 8.5871 14.9471 11.4129 16.9049 12.5433C17.0237 12.6119 17.0644 12.7638 16.9958 12.8826L15.9942 14.6175C15.9256 14.7363 15.7737 14.777 15.6549 14.7084C13.6971 13.578 11.2499 14.991 11.2499 17.2516C11.2499 17.3888 11.1387 17.5 11.0016 17.5H8.99835C8.86115 17.5 8.74992 17.3888 8.74992 17.2516C8.74992 14.9908 6.3026 13.578 4.34484 14.7083C4.22598 14.7769 4.07401 14.7362 4.00541 14.6174L3.00385 12.8826C2.93525 12.7638 2.97596 12.6119 3.09478 12.5433C5.05258 11.413 5.05258 8.5871 3.09478 7.45677C2.97596 7.38817 2.93525 7.23624 3.00385 7.11743L4.00541 5.38268C4.07402 5.26384 4.22598 5.22312 4.34483 5.29173C6.30264 6.42207 8.74992 5.00916 8.74992 2.74846C8.74992 2.61124 8.86116 2.5 8.99838 2.5ZM6.87492 2.74846C6.87492 1.5757 7.82563 0.625 8.99838 0.625H11.0015C12.1742 0.625 13.1249 1.5757 13.1249 2.74842C13.1249 3.5657 14.0097 4.07652 14.7174 3.66788C15.733 3.08153 17.0316 3.42949 17.618 4.44508L18.6196 6.17993C19.206 7.19554 18.858 8.4942 17.8424 9.08056C17.1346 9.48921 17.1346 10.5108 17.8424 10.9195C18.858 11.5059 19.206 12.8045 18.6196 13.8201L17.618 15.555C17.0316 16.5706 15.733 16.9185 14.7174 16.3322C14.0097 15.9235 13.1249 16.4343 13.1249 17.2516C13.1249 18.4243 12.1743 19.375 11.0016 19.375H8.99835C7.82561 19.375 6.87492 18.4243 6.87492 17.2516C6.87492 16.4343 5.99015 15.9235 5.28234 16.3321C4.2667 16.9185 2.96799 16.5705 2.38161 15.5549L1.38005 13.8201C0.793689 12.8045 1.14166 11.5059 2.15728 10.9195C2.86508 10.5108 2.86508 9.48921 2.15728 9.08056C1.14166 8.4942 0.793689 7.19554 1.38005 6.17993L2.38161 4.44518C2.96799 3.42954 4.26669 3.08156 5.28233 3.66794C5.99015 4.0766 6.87492 3.56577 6.87492 2.74846ZM11.8749 10C11.8749 11.0355 11.0354 11.875 9.99989 11.875C8.96436 11.875 8.12489 11.0355 8.12489 10C8.12489 8.96446 8.96436 8.125 9.99989 8.125C11.0354 8.125 11.8749 8.96446 11.8749 10ZM13.7499 10C13.7499 12.0711 12.071 13.75 9.99989 13.75C7.92883 13.75 6.24989 12.0711 6.24989 10C6.24989 7.92893 7.92883 6.25 9.99989 6.25C12.071 6.25 13.7499 7.92893 13.7499 10Z" fill="#ADADAD"/>
</g>
<defs>
<clipPath id="clip0_312_64961">
<rect width="20" height="20" fill="white"/>
</clipPath>
</defs>
</svg>
