<svg width="43" height="26" viewBox="0 0 43 26" fill="none" xmlns="http://www.w3.org/2000/svg">
<path d="M23.3757 26C9.02592 26 0.841037 16.2402 0.5 0H7.68801C7.92411 11.9199 13.2233 16.969 17.4207 18.01V0H24.1889V10.2803C28.3339 9.83784 32.6886 5.15315 34.1577 0H40.926C40.3724 2.67257 39.2689 5.20307 37.6845 7.43322C36.1001 9.66336 34.0689 11.5452 31.718 12.961C34.3422 14.2546 36.6601 16.0856 38.5186 18.3332C40.3772 20.5808 41.7341 23.1939 42.5 26H35.0497C34.3622 23.5627 32.9648 21.3809 31.0328 19.7281C29.1008 18.0753 26.7201 17.0249 24.1889 16.7087V26H23.3757Z" fill="#0077FF"/>
</svg>
