<svg width="52" height="51" viewBox="0 0 52 51" fill="none" xmlns="http://www.w3.org/2000/svg">
<path d="M21.5612 46.4038C21.8481 43.0333 22.1031 39.8052 22.3369 36.5487C21.3452 35.6188 17.442 32.3444 15.88 29.0166C12.7808 22.4181 6.40537 22.0618 6.965 20.6722C7.12084 20.2874 7.47858 19.7458 8.88472 19.924C11.7182 20.2803 15.926 22.9169 17.3145 24.88C18.7029 26.8468 20.7147 29.6972 22.7301 30.7447C22.7973 29.7043 22.8576 28.7458 22.9142 27.8658C23.1258 24.4266 23.2642 5.62366 23.4621 0.717538C23.4768 0.353027 23.1686 0.061101 22.8048 0.0889811C7.15405 1.28859 0.207031 12.259 0.207031 25.6247C0.207031 37.7606 6.41008 47.9227 18.9084 50.5895C19.738 50.7665 20.5941 50.3665 20.8884 49.571C21.2174 48.682 21.4546 47.6353 21.5612 46.4038ZM15.1327 14.0166C15.4337 13.8741 17.5199 13.6318 19.0677 16.9596C20.3357 19.6853 19.0925 21.7447 18.7914 21.8872C18.4904 22.0297 16.4042 22.272 14.8564 18.9442C13.3086 15.6128 14.8316 14.1591 15.1327 14.0166ZM13.0288 30.9371C12.88 31.2363 11.3888 32.7257 8.12674 31.0724C4.8611 29.4192 5.16571 27.3278 5.31447 27.0321C5.46323 26.7328 6.95438 25.2435 10.2165 26.8967C12.8871 28.247 13.1775 30.6413 13.0288 30.9371Z" fill="white"/>
<path fill-rule="evenodd" clip-rule="evenodd" d="M27.718 0.0248436C27.3747 0.00876778 27.083 0.283203 27.0838 0.6268C27.1107 12.0504 27.8594 25.0975 28.089 29.38C29.0913 28.671 30.2247 25.924 31.0465 24.2316C32.9662 20.2803 37.723 18.962 38.3215 19.7138C39.3416 20.9929 36.1539 20.6366 34.0465 25.3183C33.7844 25.9026 33.6746 26.633 33.4621 27.4133C32.991 29.1485 31.9815 30.9727 30.9721 32.5012C31.2696 32.3729 31.5565 32.2304 31.8257 32.1021C32.5589 31.7423 35.6191 29.323 36.1256 29.323C36.3133 29.323 36.4833 29.3622 36.6356 29.4371C36.9827 29.6116 37.1917 29.9287 37.2165 30.3064C37.2944 31.5677 32.5589 35.234 32.4632 35.2981C31.5884 35.886 29.4739 36.7589 28.5175 37.1437C28.7017 40.2755 28.9036 43.3147 29.1232 46.4145C29.2199 47.7477 29.4752 48.8666 29.8417 49.8052C30.1351 50.5569 30.9394 50.9422 31.7357 50.8116C45.6453 48.5297 51.207 38.1214 51.207 25.6247C51.207 11.9782 44.8742 0.828409 27.718 0.0248436ZM31.2767 15.1211C31.2661 18.7945 33.2566 19.4715 33.5896 19.4715C33.9225 19.4751 35.9166 18.1425 35.9272 15.1354C35.9379 11.462 33.9473 10.7886 33.6144 10.785C33.2814 10.7815 31.2873 11.4442 31.2767 15.1211ZM36.6569 26.6686C36.7773 26.9822 38.1126 28.6105 41.5234 27.2886C44.9308 25.9667 44.8351 23.8575 44.7147 23.5439C44.5943 23.2304 42.6391 21.8409 39.8481 22.924C36.4408 24.2458 36.5364 26.3551 36.6569 26.6686Z" fill="white"/>
</svg>
