<?xml version="1.0" encoding="UTF-8"?>
<svg version="1.1" xmlns="http://www.w3.org/2000/svg" width="33" height="38">
<path d="M0 0 C10.89 0 21.78 0 33 0 C33 12.54 33 25.08 33 38 C22.11 38 11.22 38 0 38 C0 25.46 0 12.92 0 0 Z " fill="#FEFEFE" transform="translate(0,0)"/>
<path d="M0 0 C2.97 0 5.94 0 9 0 C9.33 1.65 9.66 3.3 10 5 C10.969375 5.12375 11.93875 5.2475 12.9375 5.375 C14.4534375 5.684375 14.4534375 5.684375 16 6 C17.35281371 8.70562743 17.20609362 10.91893655 17.25 13.9375 C17.27578125 14.99839844 17.3015625 16.05929688 17.328125 17.15234375 C17 20 17 20 15.75097656 21.65307617 C13.56752689 23.33267626 12.38910431 23.38628891 9.65625 23.3984375 C8.82222656 23.40230469 7.98820312 23.40617187 7.12890625 23.41015625 C5.82759766 23.39275391 5.82759766 23.39275391 4.5 23.375 C3.63246094 23.38660156 2.76492188 23.39820312 1.87109375 23.41015625 C1.03707031 23.40628906 0.20304688 23.40242188 -0.65625 23.3984375 C-1.79803711 23.39336182 -1.79803711 23.39336182 -2.96289062 23.38818359 C-5.53955081 22.89718531 -6.4284308 22.06991643 -8 20 C-8.3984375 17.1875 -8.3984375 17.1875 -8.375 14 C-8.38273438 12.948125 -8.39046875 11.89625 -8.3984375 10.8125 C-8 8 -8 8 -6.7265625 6.125 C-5 5 -5 5 -1 5 C-0.67 3.35 -0.34 1.7 0 0 Z " fill="#BEBEBE" transform="translate(12,9)"/>
<path d="M0 0 C6.27 0 12.54 0 19 0 C19.09765625 8.49609375 19.09765625 8.49609375 19 11 C17.1144747 12.8855253 14.42231169 12.13246689 11.91796875 12.13671875 C11.12003906 12.13285156 10.32210938 12.12898438 9.5 12.125 C8.70207031 12.12886719 7.90414063 12.13273437 7.08203125 12.13671875 C1.12660767 12.12660767 1.12660767 12.12660767 0 11 C-0.14310287 7.3308423 -0.04221662 3.67284559 0 0 Z " fill="#FEFEFE" transform="translate(7,17)"/>
<path d="M0 0 C2.97 0 5.94 0 9 0 C9 1.32 9 2.64 9 4 C8 5 8 5 4.4375 5.0625 C3.303125 5.041875 2.16875 5.02125 1 5 C1 4.34 1 3.68 1 3 C0.34 3 -0.32 3 -1 3 C-0.67 2.01 -0.34 1.02 0 0 Z " fill="#D2D2D2" transform="translate(12,9)"/>
<path d="M0 0 C4.29 0 8.58 0 13 0 C13 0.99 13 1.98 13 3 C8.71 3 4.42 3 0 3 C0 2.01 0 1.02 0 0 Z " fill="#C0C0C0" transform="translate(10,19)"/>
<path d="M0 0 C0.66 0.33 1.32 0.66 2 1 C4.71262116 1.2322646 7.40773126 1.41936235 10.125 1.5625 C11.25615234 1.62727539 11.25615234 1.62727539 12.41015625 1.69335938 C14.27321888 1.7994832 16.13658524 1.90025001 18 2 C18 2.33 18 2.66 18 3 C12.06 3 6.12 3 0 3 C0 6.3 0 9.6 0 13 C-0.33 13 -0.66 13 -1 13 C-1.22786458 10.98177083 -1.45572917 8.96354167 -1.68359375 6.9453125 C-1.91292961 4.92595684 -1.91292961 4.92595684 -3 3 C-2.01 2.01 -1.02 1.02 0 0 Z " fill="#CFCFCF" transform="translate(7,14)"/>
</svg>
