<svg width="45" height="44" viewBox="0 0 45 44" fill="none" xmlns="http://www.w3.org/2000/svg">
<path d="M43.5326 21.0262C43.5365 21.0262 43.5394 21.0262 43.5432 21.0262C43.8112 21.0262 44.0667 20.9138 44.2483 20.7169C44.4327 20.5171 44.5239 20.2491 44.4999 19.9782C43.5355 9.3706 35.1372 0.969432 24.5287 0.00309555C24.2597 -0.018037 23.9888 0.0693751 23.789 0.254766C23.5892 0.439196 23.4778 0.699511 23.4807 0.971353C23.6478 15.0687 25.5075 20.8293 43.5326 21.0262ZM43.5326 22.9742C25.5075 23.1711 23.6488 28.9317 23.4816 43.0291C23.4788 43.3009 23.5902 43.5612 23.79 43.7457C23.9686 43.9099 24.2021 44.0012 24.4422 44.0012C24.471 44.0012 24.5008 44.0002 24.5296 43.9973C35.1382 43.031 43.5365 34.6308 44.4999 24.0222C44.5239 23.7513 44.4336 23.4833 44.2483 23.2835C44.0629 23.0837 43.8045 22.9848 43.5326 22.9742ZM20.4107 0.00789852C9.83574 1.00209 1.46435 9.40134 0.504738 19.9801C0.480724 20.251 0.571018 20.519 0.756408 20.7188C0.937956 20.9157 1.19443 21.0271 1.46147 21.0271C1.46531 21.0271 1.46915 21.0271 1.473 21.0271C19.4386 20.8206 21.2934 15.063 21.4625 0.975195C21.4654 0.703353 21.353 0.442077 21.1532 0.257647C20.9515 0.0732175 20.6816 -0.0170764 20.4107 0.00789852ZM1.47203 22.9733C1.1733 22.9396 0.938917 23.0818 0.755448 23.2816C0.571018 23.4814 0.479763 23.7494 0.503778 24.0203C1.46339 34.5991 9.83574 42.9983 20.4107 43.9925C20.4405 43.9954 20.4712 43.9964 20.501 43.9964C20.7411 43.9964 20.9736 43.9061 21.1522 43.7418C21.352 43.5574 21.4644 43.2961 21.4615 43.0243C21.2925 28.9375 19.4386 23.1798 1.47203 22.9733Z" fill="black"/>
</svg>
